<?xml version="1.0" encoding="UTF-8" standalone="no"?>
<!DOCTYPE svg PUBLIC "-//W3C//DTD SVG 1.1//EN"
 "http://www.w3.org/Graphics/SVG/1.1/DTD/svg11.dtd">
<!-- Generated by graphviz version 2.47.0 (20210316.0004)
 -->
<!-- Title: dependencies Pages: 1 -->
<svg width="2527pt" height="284pt"
 viewBox="0.00 0.00 2527.00 284.00" xmlns="http://www.w3.org/2000/svg" xmlns:xlink="http://www.w3.org/1999/xlink">
<g id="graph0" class="graph" transform="scale(1 1) rotate(0) translate(4 280)">
<title>dependencies</title>
<polygon fill="white" stroke="transparent" points="-4,4 -4,-280 2523,-280 2523,4 -4,4"/>
<text text-anchor="start" x="1238.51" y="-42.4" font-family="sans-serif" font-weight="bold" font-size="14.00">Legend</text>
<polygon fill="#ffffb3" stroke="transparent" points="1025.5,-10 1025.5,-30 1045.5,-30 1045.5,-10 1025.5,-10"/>
<text text-anchor="start" x="1049.13" y="-15.4" font-family="sans-serif" font-size="14.00"> &#160;Declarations</text>
<polygon fill="#8dd3c7" stroke="transparent" points="1138.5,-10 1138.5,-30 1158.5,-30 1158.5,-10 1138.5,-10"/>
<text text-anchor="start" x="1162.23" y="-15.4" font-family="sans-serif" font-size="14.00"> &#160;Module</text>
<polygon fill="#80b1d3" stroke="transparent" points="1224.5,-10 1224.5,-30 1244.5,-30 1244.5,-10 1224.5,-10"/>
<text text-anchor="start" x="1248.28" y="-15.4" font-family="sans-serif" font-size="14.00"> &#160;Bootstrap</text>
<polygon fill="#fdb462" stroke="transparent" points="1321.5,-10 1321.5,-30 1341.5,-30 1341.5,-10 1321.5,-10"/>
<text text-anchor="start" x="1345.17" y="-15.4" font-family="sans-serif" font-size="14.00"> &#160;Providers</text>
<polygon fill="#fb8072" stroke="transparent" points="1417.5,-10 1417.5,-30 1437.5,-30 1437.5,-10 1417.5,-10"/>
<text text-anchor="start" x="1441.23" y="-15.4" font-family="sans-serif" font-size="14.00"> &#160;Exports</text>
<g id="clust1" class="cluster">
<title>cluster_AppModule</title>
<polygon fill="none" stroke="black" stroke-dasharray="1,5" points="8,-70 8,-268 2511,-268 2511,-70 8,-70"/>
</g>
<g id="clust19" class="cluster">
<title>cluster_AppModule_imports</title>
<polygon fill="none" stroke="black" points="2359,-78 2359,-130 2503,-130 2503,-78 2359,-78"/>
</g>
<g id="clust21" class="cluster">
<title>cluster_AppModule_bootstrap</title>
<polygon fill="none" stroke="black" points="1264,-208 1264,-260 1388,-260 1388,-208 1264,-208"/>
</g>
<g id="clust2" class="cluster">
<title>cluster_AppModule_declarations</title>
<polygon fill="none" stroke="black" points="16,-78 16,-130 2351,-130 2351,-78 16,-78"/>
</g>
<!-- AlertasComponent -->
<g id="node1" class="node">
<title>AlertasComponent</title>
<polygon fill="#ffffb3" stroke="black" points="2342.75,-122 2221.25,-122 2221.25,-86 2342.75,-86 2342.75,-122"/>
<text text-anchor="middle" x="2282" y="-99.8" font-family="Times,serif" font-size="14.00">AlertasComponent</text>
</g>
<!-- AppModule -->
<g id="node17" class="node">
<title>AppModule</title>
<polygon fill="#8dd3c7" stroke="black" points="1367.66,-187 1364.66,-191 1343.66,-191 1340.66,-187 1284.34,-187 1284.34,-151 1367.66,-151 1367.66,-187"/>
<text text-anchor="middle" x="1326" y="-164.8" font-family="Times,serif" font-size="14.00">AppModule</text>
</g>
<!-- AlertasComponent&#45;&gt;AppModule -->
<g id="edge1" class="edge">
<title>AlertasComponent&#45;&gt;AppModule</title>
<path fill="none" stroke="black" d="M2282,-122.16C2282,-144.35 2282,-179 2282,-179 2282,-179 1377.69,-179 1377.69,-179"/>
<polygon fill="black" stroke="black" points="1377.69,-175.5 1367.69,-179 1377.69,-182.5 1377.69,-175.5"/>
</g>
<!-- AppComponent -->
<g id="node2" class="node">
<title>AppComponent</title>
<polygon fill="#ffffb3" stroke="black" points="2202.94,-122 2097.06,-122 2097.06,-86 2202.94,-86 2202.94,-122"/>
<text text-anchor="middle" x="2150" y="-99.8" font-family="Times,serif" font-size="14.00">AppComponent</text>
</g>
<!-- AppComponent&#45;&gt;AppModule -->
<g id="edge2" class="edge">
<title>AppComponent&#45;&gt;AppModule</title>
<path fill="none" stroke="black" d="M2150,-122.28C2150,-143.32 2150,-175 2150,-175 2150,-175 1377.71,-175 1377.71,-175"/>
<polygon fill="black" stroke="black" points="1377.71,-171.5 1367.71,-175 1377.71,-178.5 1377.71,-171.5"/>
</g>
<!-- CadastrarComponent -->
<g id="node3" class="node">
<title>CadastrarComponent</title>
<polygon fill="#ffffb3" stroke="black" points="2079.47,-122 1944.53,-122 1944.53,-86 2079.47,-86 2079.47,-122"/>
<text text-anchor="middle" x="2012" y="-99.8" font-family="Times,serif" font-size="14.00">CadastrarComponent</text>
</g>
<!-- CadastrarComponent&#45;&gt;AppModule -->
<g id="edge3" class="edge">
<title>CadastrarComponent&#45;&gt;AppModule</title>
<path fill="none" stroke="black" d="M2012,-122.31C2012,-142.15 2012,-171 2012,-171 2012,-171 1377.88,-171 1377.88,-171"/>
<polygon fill="black" stroke="black" points="1377.88,-167.5 1367.88,-171 1377.88,-174.5 1377.88,-167.5"/>
</g>
<!-- ContatoComponent -->
<g id="node4" class="node">
<title>ContatoComponent</title>
<polygon fill="#ffffb3" stroke="black" points="1926.67,-122 1801.33,-122 1801.33,-86 1926.67,-86 1926.67,-122"/>
<text text-anchor="middle" x="1864" y="-99.8" font-family="Times,serif" font-size="14.00">ContatoComponent</text>
</g>
<!-- ContatoComponent&#45;&gt;AppModule -->
<g id="edge4" class="edge">
<title>ContatoComponent&#45;&gt;AppModule</title>
<path fill="none" stroke="black" d="M1864,-122.22C1864,-140.83 1864,-167 1864,-167 1864,-167 1377.77,-167 1377.77,-167"/>
<polygon fill="black" stroke="black" points="1377.77,-163.5 1367.77,-167 1377.77,-170.5 1377.77,-163.5"/>
</g>
<!-- EntrarComponent -->
<g id="node5" class="node">
<title>EntrarComponent</title>
<polygon fill="#ffffb3" stroke="black" points="1783.31,-122 1666.69,-122 1666.69,-86 1783.31,-86 1783.31,-122"/>
<text text-anchor="middle" x="1725" y="-99.8" font-family="Times,serif" font-size="14.00">EntrarComponent</text>
</g>
<!-- EntrarComponent&#45;&gt;AppModule -->
<g id="edge5" class="edge">
<title>EntrarComponent&#45;&gt;AppModule</title>
<path fill="none" stroke="black" d="M1725,-122.02C1725,-139.37 1725,-163 1725,-163 1725,-163 1377.95,-163 1377.95,-163"/>
<polygon fill="black" stroke="black" points="1377.95,-159.5 1367.95,-163 1377.95,-166.5 1377.95,-159.5"/>
</g>
<!-- HomeComponent -->
<g id="node6" class="node">
<title>HomeComponent</title>
<polygon fill="#ffffb3" stroke="black" points="1648.55,-122 1533.45,-122 1533.45,-86 1648.55,-86 1648.55,-122"/>
<text text-anchor="middle" x="1591" y="-99.8" font-family="Times,serif" font-size="14.00">HomeComponent</text>
</g>
<!-- HomeComponent&#45;&gt;AppModule -->
<g id="edge6" class="edge">
<title>HomeComponent&#45;&gt;AppModule</title>
<path fill="none" stroke="black" d="M1591,-122.01C1591,-138.05 1591,-159 1591,-159 1591,-159 1377.7,-159 1377.7,-159"/>
<polygon fill="black" stroke="black" points="1377.7,-155.5 1367.7,-159 1377.7,-162.5 1377.7,-155.5"/>
</g>
<!-- InicioComponent -->
<g id="node7" class="node">
<title>InicioComponent</title>
<polygon fill="#ffffb3" stroke="black" points="1514.99,-122 1401.01,-122 1401.01,-86 1514.99,-86 1514.99,-122"/>
<text text-anchor="middle" x="1458" y="-99.8" font-family="Times,serif" font-size="14.00">InicioComponent</text>
</g>
<!-- InicioComponent&#45;&gt;AppModule -->
<g id="edge7" class="edge">
<title>InicioComponent&#45;&gt;AppModule</title>
<path fill="none" stroke="black" d="M1458,-122.12C1458,-136.78 1458,-155 1458,-155 1458,-155 1377.77,-155 1377.77,-155"/>
<polygon fill="black" stroke="black" points="1377.77,-151.5 1367.77,-155 1377.77,-158.5 1377.77,-151.5"/>
</g>
<!-- MenuComponent -->
<g id="node8" class="node">
<title>MenuComponent</title>
<polygon fill="#ffffb3" stroke="black" points="1382.99,-122 1269.01,-122 1269.01,-86 1382.99,-86 1382.99,-122"/>
<text text-anchor="middle" x="1326" y="-99.8" font-family="Times,serif" font-size="14.00">MenuComponent</text>
</g>
<!-- MenuComponent&#45;&gt;AppModule -->
<g id="edge8" class="edge">
<title>MenuComponent&#45;&gt;AppModule</title>
<path fill="none" stroke="black" d="M1326,-122.11C1326,-122.11 1326,-140.99 1326,-140.99"/>
<polygon fill="black" stroke="black" points="1322.5,-140.99 1326,-150.99 1329.5,-140.99 1322.5,-140.99"/>
</g>
<!-- PostagemDeleteComponent -->
<g id="node9" class="node">
<title>PostagemDeleteComponent</title>
<polygon fill="#ffffb3" stroke="black" points="1251.3,-122 1078.7,-122 1078.7,-86 1251.3,-86 1251.3,-122"/>
<text text-anchor="middle" x="1165" y="-99.8" font-family="Times,serif" font-size="14.00">PostagemDeleteComponent</text>
</g>
<!-- PostagemDeleteComponent&#45;&gt;AppModule -->
<g id="edge9" class="edge">
<title>PostagemDeleteComponent&#45;&gt;AppModule</title>
<path fill="none" stroke="black" d="M1165,-122.12C1165,-136.78 1165,-155 1165,-155 1165,-155 1274.12,-155 1274.12,-155"/>
<polygon fill="black" stroke="black" points="1274.12,-158.5 1284.12,-155 1274.12,-151.5 1274.12,-158.5"/>
</g>
<!-- PostagemEditComponent -->
<g id="node10" class="node">
<title>PostagemEditComponent</title>
<polygon fill="#ffffb3" stroke="black" points="1060.6,-122 901.4,-122 901.4,-86 1060.6,-86 1060.6,-122"/>
<text text-anchor="middle" x="981" y="-99.8" font-family="Times,serif" font-size="14.00">PostagemEditComponent</text>
</g>
<!-- PostagemEditComponent&#45;&gt;AppModule -->
<g id="edge10" class="edge">
<title>PostagemEditComponent&#45;&gt;AppModule</title>
<path fill="none" stroke="black" d="M981,-122.01C981,-138.05 981,-159 981,-159 981,-159 1274.04,-159 1274.04,-159"/>
<polygon fill="black" stroke="black" points="1274.04,-162.5 1284.04,-159 1274.04,-155.5 1274.04,-162.5"/>
</g>
<!-- RodapeComponent -->
<g id="node11" class="node">
<title>RodapeComponent</title>
<polygon fill="#ffffb3" stroke="black" points="883.1,-122 758.9,-122 758.9,-86 883.1,-86 883.1,-122"/>
<text text-anchor="middle" x="821" y="-99.8" font-family="Times,serif" font-size="14.00">RodapeComponent</text>
</g>
<!-- RodapeComponent&#45;&gt;AppModule -->
<g id="edge11" class="edge">
<title>RodapeComponent&#45;&gt;AppModule</title>
<path fill="none" stroke="black" d="M821,-122.02C821,-139.37 821,-163 821,-163 821,-163 1274.24,-163 1274.24,-163"/>
<polygon fill="black" stroke="black" points="1274.24,-166.5 1284.24,-163 1274.24,-159.5 1274.24,-166.5"/>
</g>
<!-- SobreComponent -->
<g id="node12" class="node">
<title>SobreComponent</title>
<polygon fill="#ffffb3" stroke="black" points="740.99,-122 627.01,-122 627.01,-86 740.99,-86 740.99,-122"/>
<text text-anchor="middle" x="684" y="-99.8" font-family="Times,serif" font-size="14.00">SobreComponent</text>
</g>
<!-- SobreComponent&#45;&gt;AppModule -->
<g id="edge12" class="edge">
<title>SobreComponent&#45;&gt;AppModule</title>
<path fill="none" stroke="black" d="M684,-122.22C684,-140.83 684,-167 684,-167 684,-167 1273.88,-167 1273.88,-167"/>
<polygon fill="black" stroke="black" points="1273.88,-170.5 1283.88,-167 1273.88,-163.5 1273.88,-170.5"/>
</g>
<!-- TemaComponent -->
<g id="node13" class="node">
<title>TemaComponent</title>
<polygon fill="#ffffb3" stroke="black" points="608.7,-122 495.3,-122 495.3,-86 608.7,-86 608.7,-122"/>
<text text-anchor="middle" x="552" y="-99.8" font-family="Times,serif" font-size="14.00">TemaComponent</text>
</g>
<!-- TemaComponent&#45;&gt;AppModule -->
<g id="edge13" class="edge">
<title>TemaComponent&#45;&gt;AppModule</title>
<path fill="none" stroke="black" d="M552,-122.31C552,-142.15 552,-171 552,-171 552,-171 1274.11,-171 1274.11,-171"/>
<polygon fill="black" stroke="black" points="1274.11,-174.5 1284.11,-171 1274.11,-167.5 1274.11,-174.5"/>
</g>
<!-- TemaDeleteComponent -->
<g id="node14" class="node">
<title>TemaDeleteComponent</title>
<polygon fill="#ffffb3" stroke="black" points="477.74,-122 328.26,-122 328.26,-86 477.74,-86 477.74,-122"/>
<text text-anchor="middle" x="403" y="-99.8" font-family="Times,serif" font-size="14.00">TemaDeleteComponent</text>
</g>
<!-- TemaDeleteComponent&#45;&gt;AppModule -->
<g id="edge14" class="edge">
<title>TemaDeleteComponent&#45;&gt;AppModule</title>
<path fill="none" stroke="black" d="M403,-122.28C403,-143.32 403,-175 403,-175 403,-175 1274.25,-175 1274.25,-175"/>
<polygon fill="black" stroke="black" points="1274.25,-178.5 1284.25,-175 1274.25,-171.5 1274.25,-178.5"/>
</g>
<!-- TemaEditComponent -->
<g id="node15" class="node">
<title>TemaEditComponent</title>
<polygon fill="#ffffb3" stroke="black" points="310.04,-122 173.96,-122 173.96,-86 310.04,-86 310.04,-122"/>
<text text-anchor="middle" x="242" y="-99.8" font-family="Times,serif" font-size="14.00">TemaEditComponent</text>
</g>
<!-- TemaEditComponent&#45;&gt;AppModule -->
<g id="edge15" class="edge">
<title>TemaEditComponent&#45;&gt;AppModule</title>
<path fill="none" stroke="black" d="M242,-122.16C242,-144.35 242,-179 242,-179 242,-179 1274.17,-179 1274.17,-179"/>
<polygon fill="black" stroke="black" points="1274.17,-182.5 1284.17,-179 1274.17,-175.5 1274.17,-182.5"/>
</g>
<!-- UserEditComponent -->
<g id="node16" class="node">
<title>UserEditComponent</title>
<polygon fill="#ffffb3" stroke="black" points="155.59,-122 24.41,-122 24.41,-86 155.59,-86 155.59,-122"/>
<text text-anchor="middle" x="90" y="-99.8" font-family="Times,serif" font-size="14.00">UserEditComponent</text>
</g>
<!-- UserEditComponent&#45;&gt;AppModule -->
<g id="edge16" class="edge">
<title>UserEditComponent&#45;&gt;AppModule</title>
<path fill="none" stroke="black" d="M90,-122.32C90,-145.66 90,-183 90,-183 90,-183 1274.17,-183 1274.17,-183"/>
<polygon fill="black" stroke="black" points="1274.17,-186.5 1284.17,-183 1274.17,-179.5 1274.17,-186.5"/>
</g>
<!-- AppComponent  -->
<g id="node19" class="node">
<title>AppComponent </title>
<polygon fill="#80b1d3" stroke="black" points="1380.44,-252 1271.56,-252 1271.56,-216 1380.44,-216 1380.44,-252"/>
<text text-anchor="middle" x="1326" y="-229.8" font-family="Times,serif" font-size="14.00">AppComponent </text>
</g>
<!-- AppModule&#45;&gt;AppComponent  -->
<g id="edge18" class="edge">
<title>AppModule&#45;&gt;AppComponent </title>
<path fill="none" stroke="black" stroke-dasharray="1,5" d="M1326,-187.11C1326,-187.11 1326,-205.99 1326,-205.99"/>
<polygon fill="black" stroke="black" points="1322.5,-205.99 1326,-215.99 1329.5,-205.99 1322.5,-205.99"/>
</g>
<!-- AppRoutingModule -->
<g id="node18" class="node">
<title>AppRoutingModule</title>
<polygon fill="#8dd3c7" stroke="black" points="2495.27,-122 2492.27,-126 2471.27,-126 2468.27,-122 2366.73,-122 2366.73,-86 2495.27,-86 2495.27,-122"/>
<text text-anchor="middle" x="2431" y="-99.8" font-family="Times,serif" font-size="14.00">AppRoutingModule</text>
</g>
<!-- AppRoutingModule&#45;&gt;AppModule -->
<g id="edge17" class="edge">
<title>AppRoutingModule&#45;&gt;AppModule</title>
<path fill="none" stroke="black" d="M2431,-122.32C2431,-145.66 2431,-183 2431,-183 2431,-183 1377.97,-183 1377.97,-183"/>
<polygon fill="black" stroke="black" points="1377.97,-179.5 1367.97,-183 1377.97,-186.5 1377.97,-179.5"/>
</g>
</g>
</svg>
