<?xml version="1.0" encoding="UTF-8" standalone="no"?>
<!DOCTYPE svg PUBLIC "-//W3C//DTD SVG 1.1//EN"
 "http://www.w3.org/Graphics/SVG/1.1/DTD/svg11.dtd">
<!-- Generated by graphviz version 2.47.0 (20210316.0004)
 -->
<!-- Title: dependencies Pages: 1 -->
<svg width="2527pt" height="284pt"
 viewBox="0.00 0.00 2527.00 284.00" xmlns="http://www.w3.org/2000/svg" xmlns:xlink="http://www.w3.org/1999/xlink">
<g id="graph0" class="graph" transform="scale(1 1) rotate(0) translate(4 280)">
<title>dependencies</title>
<polygon fill="white" stroke="transparent" points="-4,4 -4,-280 2523,-280 2523,4 -4,4"/>
<text text-anchor="start" x="1238.51" y="-42.4" font-family="sans-serif" font-weight="bold" font-size="14.00">Legend</text>
<polygon fill="#ffffb3" stroke="transparent" points="1025.5,-10 1025.5,-30 1045.5,-30 1045.5,-10 1025.5,-10"/>
<text text-anchor="start" x="1049.13" y="-15.4" font-family="sans-serif" font-size="14.00"> &#160;Declarations</text>
<polygon fill="#8dd3c7" stroke="transparent" points="1138.5,-10 1138.5,-30 1158.5,-30 1158.5,-10 1138.5,-10"/>
<text text-anchor="start" x="1162.23" y="-15.4" font-family="sans-serif" font-size="14.00"> &#160;Module</text>
<polygon fill="#80b1d3" stroke="transparent" points="1224.5,-10 1224.5,-30 1244.5,-30 1244.5,-10 1224.5,-10"/>
<text text-anchor="start" x="1248.28" y="-15.4" font-family="sans-serif" font-size="14.00"> &#160;Bootstrap</text>
<polygon fill="#fdb462" stroke="transparent" points="1321.5,-10 1321.5,-30 1341.5,-30 1341.5,-10 1321.5,-10"/>
<text text-anchor="start" x="1345.17" y="-15.4" font-family="sans-serif" font-size="14.00"> &#160;Providers</text>
<polygon fill="#fb8072" stroke="transparent" points="1417.5,-10 1417.5,-30 1437.5,-30 1437.5,-10 1417.5,-10"/>
<text text-anchor="start" x="1441.23" y="-15.4" font-family="sans-serif" font-size="14.00"> &#160;Exports</text>
<g id="clust1" class="cluster">
<title>cluster_AppModule</title>
<polygon fill="none" stroke="black" stroke-dasharray="1,5" points="8,-70 8,-268 2511,-268 2511,-70 8,-70"/>
</g>
<g id="clust2" class="cluster">
<title>cluster_AppModule_declarations</title>
<polygon fill="none" stroke="black" points="168,-78 168,-130 2503,-130 2503,-78 168,-78"/>
</g>
<g id="clust19" class="cluster">
<title>cluster_AppModule_imports</title>
<polygon fill="none" stroke="black" points="16,-78 16,-130 160,-130 160,-78 16,-78"/>
</g>
<g id="clust21" class="cluster">
<title>cluster_AppModule_bootstrap</title>
<polygon fill="none" stroke="black" points="1255,-208 1255,-260 1379,-260 1379,-208 1255,-208"/>
</g>
<!-- AlertasComponent -->
<g id="node1" class="node">
<title>AlertasComponent</title>
<polygon fill="#ffffb3" stroke="black" points="2494.75,-122 2373.25,-122 2373.25,-86 2494.75,-86 2494.75,-122"/>
<text text-anchor="middle" x="2434" y="-99.8" font-family="Times,serif" font-size="14.00">AlertasComponent</text>
</g>
<!-- AppModule -->
<g id="node17" class="node">
<title>AppModule</title>
<polygon fill="#8dd3c7" stroke="black" points="1358.66,-187 1355.66,-191 1334.66,-191 1331.66,-187 1275.34,-187 1275.34,-151 1358.66,-151 1358.66,-187"/>
<text text-anchor="middle" x="1317" y="-164.8" font-family="Times,serif" font-size="14.00">AppModule</text>
</g>
<!-- AlertasComponent&#45;&gt;AppModule -->
<g id="edge1" class="edge">
<title>AlertasComponent&#45;&gt;AppModule</title>
<path fill="none" stroke="black" d="M2434,-122.32C2434,-145.66 2434,-183 2434,-183 2434,-183 1368.75,-183 1368.75,-183"/>
<polygon fill="black" stroke="black" points="1368.75,-179.5 1358.75,-183 1368.75,-186.5 1368.75,-179.5"/>
</g>
<!-- AppComponent -->
<g id="node2" class="node">
<title>AppComponent</title>
<polygon fill="#ffffb3" stroke="black" points="2354.94,-122 2249.06,-122 2249.06,-86 2354.94,-86 2354.94,-122"/>
<text text-anchor="middle" x="2302" y="-99.8" font-family="Times,serif" font-size="14.00">AppComponent</text>
</g>
<!-- AppComponent&#45;&gt;AppModule -->
<g id="edge2" class="edge">
<title>AppComponent&#45;&gt;AppModule</title>
<path fill="none" stroke="black" d="M2302,-122.16C2302,-144.35 2302,-179 2302,-179 2302,-179 1368.7,-179 1368.7,-179"/>
<polygon fill="black" stroke="black" points="1368.7,-175.5 1358.7,-179 1368.7,-182.5 1368.7,-175.5"/>
</g>
<!-- CadastrarComponent -->
<g id="node3" class="node">
<title>CadastrarComponent</title>
<polygon fill="#ffffb3" stroke="black" points="2231.47,-122 2096.53,-122 2096.53,-86 2231.47,-86 2231.47,-122"/>
<text text-anchor="middle" x="2164" y="-99.8" font-family="Times,serif" font-size="14.00">CadastrarComponent</text>
</g>
<!-- CadastrarComponent&#45;&gt;AppModule -->
<g id="edge3" class="edge">
<title>CadastrarComponent&#45;&gt;AppModule</title>
<path fill="none" stroke="black" d="M2164,-122.28C2164,-143.32 2164,-175 2164,-175 2164,-175 1368.71,-175 1368.71,-175"/>
<polygon fill="black" stroke="black" points="1368.71,-171.5 1358.71,-175 1368.71,-178.5 1368.71,-171.5"/>
</g>
<!-- ContatoComponent -->
<g id="node4" class="node">
<title>ContatoComponent</title>
<polygon fill="#ffffb3" stroke="black" points="2078.67,-122 1953.33,-122 1953.33,-86 2078.67,-86 2078.67,-122"/>
<text text-anchor="middle" x="2016" y="-99.8" font-family="Times,serif" font-size="14.00">ContatoComponent</text>
</g>
<!-- ContatoComponent&#45;&gt;AppModule -->
<g id="edge4" class="edge">
<title>ContatoComponent&#45;&gt;AppModule</title>
<path fill="none" stroke="black" d="M2016,-122.31C2016,-142.15 2016,-171 2016,-171 2016,-171 1368.89,-171 1368.89,-171"/>
<polygon fill="black" stroke="black" points="1368.89,-167.5 1358.89,-171 1368.89,-174.5 1368.89,-167.5"/>
</g>
<!-- EntrarComponent -->
<g id="node5" class="node">
<title>EntrarComponent</title>
<polygon fill="#ffffb3" stroke="black" points="1935.31,-122 1818.69,-122 1818.69,-86 1935.31,-86 1935.31,-122"/>
<text text-anchor="middle" x="1877" y="-99.8" font-family="Times,serif" font-size="14.00">EntrarComponent</text>
</g>
<!-- EntrarComponent&#45;&gt;AppModule -->
<g id="edge5" class="edge">
<title>EntrarComponent&#45;&gt;AppModule</title>
<path fill="none" stroke="black" d="M1877,-122.22C1877,-140.83 1877,-167 1877,-167 1877,-167 1369.09,-167 1369.09,-167"/>
<polygon fill="black" stroke="black" points="1369.09,-163.5 1359.09,-167 1369.09,-170.5 1369.09,-163.5"/>
</g>
<!-- HomeComponent -->
<g id="node6" class="node">
<title>HomeComponent</title>
<polygon fill="#ffffb3" stroke="black" points="1800.55,-122 1685.45,-122 1685.45,-86 1800.55,-86 1800.55,-122"/>
<text text-anchor="middle" x="1743" y="-99.8" font-family="Times,serif" font-size="14.00">HomeComponent</text>
</g>
<!-- HomeComponent&#45;&gt;AppModule -->
<g id="edge6" class="edge">
<title>HomeComponent&#45;&gt;AppModule</title>
<path fill="none" stroke="black" d="M1743,-122.02C1743,-139.37 1743,-163 1743,-163 1743,-163 1369.01,-163 1369.01,-163"/>
<polygon fill="black" stroke="black" points="1369.01,-159.5 1359.01,-163 1369.01,-166.5 1369.01,-159.5"/>
</g>
<!-- InicioComponent -->
<g id="node7" class="node">
<title>InicioComponent</title>
<polygon fill="#ffffb3" stroke="black" points="1666.99,-122 1553.01,-122 1553.01,-86 1666.99,-86 1666.99,-122"/>
<text text-anchor="middle" x="1610" y="-99.8" font-family="Times,serif" font-size="14.00">InicioComponent</text>
</g>
<!-- InicioComponent&#45;&gt;AppModule -->
<g id="edge7" class="edge">
<title>InicioComponent&#45;&gt;AppModule</title>
<path fill="none" stroke="black" d="M1610,-122.01C1610,-138.05 1610,-159 1610,-159 1610,-159 1368.67,-159 1368.67,-159"/>
<polygon fill="black" stroke="black" points="1368.67,-155.5 1358.67,-159 1368.67,-162.5 1368.67,-155.5"/>
</g>
<!-- MenuComponent -->
<g id="node8" class="node">
<title>MenuComponent</title>
<polygon fill="#ffffb3" stroke="black" points="1534.99,-122 1421.01,-122 1421.01,-86 1534.99,-86 1534.99,-122"/>
<text text-anchor="middle" x="1478" y="-99.8" font-family="Times,serif" font-size="14.00">MenuComponent</text>
</g>
<!-- MenuComponent&#45;&gt;AppModule -->
<g id="edge8" class="edge">
<title>MenuComponent&#45;&gt;AppModule</title>
<path fill="none" stroke="black" d="M1478,-122.12C1478,-136.78 1478,-155 1478,-155 1478,-155 1368.88,-155 1368.88,-155"/>
<polygon fill="black" stroke="black" points="1368.88,-151.5 1358.88,-155 1368.88,-158.5 1368.88,-151.5"/>
</g>
<!-- PostagemDeleteComponent -->
<g id="node9" class="node">
<title>PostagemDeleteComponent</title>
<polygon fill="#ffffb3" stroke="black" points="1403.3,-122 1230.7,-122 1230.7,-86 1403.3,-86 1403.3,-122"/>
<text text-anchor="middle" x="1317" y="-99.8" font-family="Times,serif" font-size="14.00">PostagemDeleteComponent</text>
</g>
<!-- PostagemDeleteComponent&#45;&gt;AppModule -->
<g id="edge9" class="edge">
<title>PostagemDeleteComponent&#45;&gt;AppModule</title>
<path fill="none" stroke="black" d="M1317,-122.11C1317,-122.11 1317,-140.99 1317,-140.99"/>
<polygon fill="black" stroke="black" points="1313.5,-140.99 1317,-150.99 1320.5,-140.99 1313.5,-140.99"/>
</g>
<!-- PostagemEditComponent -->
<g id="node10" class="node">
<title>PostagemEditComponent</title>
<polygon fill="#ffffb3" stroke="black" points="1212.6,-122 1053.4,-122 1053.4,-86 1212.6,-86 1212.6,-122"/>
<text text-anchor="middle" x="1133" y="-99.8" font-family="Times,serif" font-size="14.00">PostagemEditComponent</text>
</g>
<!-- PostagemEditComponent&#45;&gt;AppModule -->
<g id="edge10" class="edge">
<title>PostagemEditComponent&#45;&gt;AppModule</title>
<path fill="none" stroke="black" d="M1133,-122.12C1133,-136.78 1133,-155 1133,-155 1133,-155 1265.25,-155 1265.25,-155"/>
<polygon fill="black" stroke="black" points="1265.25,-158.5 1275.25,-155 1265.25,-151.5 1265.25,-158.5"/>
</g>
<!-- RodapeComponent -->
<g id="node11" class="node">
<title>RodapeComponent</title>
<polygon fill="#ffffb3" stroke="black" points="1035.1,-122 910.9,-122 910.9,-86 1035.1,-86 1035.1,-122"/>
<text text-anchor="middle" x="973" y="-99.8" font-family="Times,serif" font-size="14.00">RodapeComponent</text>
</g>
<!-- RodapeComponent&#45;&gt;AppModule -->
<g id="edge11" class="edge">
<title>RodapeComponent&#45;&gt;AppModule</title>
<path fill="none" stroke="black" d="M973,-122.01C973,-138.05 973,-159 973,-159 973,-159 1265.16,-159 1265.16,-159"/>
<polygon fill="black" stroke="black" points="1265.16,-162.5 1275.16,-159 1265.16,-155.5 1265.16,-162.5"/>
</g>
<!-- SobreComponent -->
<g id="node12" class="node">
<title>SobreComponent</title>
<polygon fill="#ffffb3" stroke="black" points="892.99,-122 779.01,-122 779.01,-86 892.99,-86 892.99,-122"/>
<text text-anchor="middle" x="836" y="-99.8" font-family="Times,serif" font-size="14.00">SobreComponent</text>
</g>
<!-- SobreComponent&#45;&gt;AppModule -->
<g id="edge12" class="edge">
<title>SobreComponent&#45;&gt;AppModule</title>
<path fill="none" stroke="black" d="M836,-122.02C836,-139.37 836,-163 836,-163 836,-163 1265.16,-163 1265.16,-163"/>
<polygon fill="black" stroke="black" points="1265.16,-166.5 1275.16,-163 1265.16,-159.5 1265.16,-166.5"/>
</g>
<!-- TemaComponent -->
<g id="node13" class="node">
<title>TemaComponent</title>
<polygon fill="#ffffb3" stroke="black" points="760.7,-122 647.3,-122 647.3,-86 760.7,-86 760.7,-122"/>
<text text-anchor="middle" x="704" y="-99.8" font-family="Times,serif" font-size="14.00">TemaComponent</text>
</g>
<!-- TemaComponent&#45;&gt;AppModule -->
<g id="edge13" class="edge">
<title>TemaComponent&#45;&gt;AppModule</title>
<path fill="none" stroke="black" d="M704,-122.22C704,-140.83 704,-167 704,-167 704,-167 1264.87,-167 1264.87,-167"/>
<polygon fill="black" stroke="black" points="1264.87,-170.5 1274.87,-167 1264.87,-163.5 1264.87,-170.5"/>
</g>
<!-- TemaDeleteComponent -->
<g id="node14" class="node">
<title>TemaDeleteComponent</title>
<polygon fill="#ffffb3" stroke="black" points="629.74,-122 480.26,-122 480.26,-86 629.74,-86 629.74,-122"/>
<text text-anchor="middle" x="555" y="-99.8" font-family="Times,serif" font-size="14.00">TemaDeleteComponent</text>
</g>
<!-- TemaDeleteComponent&#45;&gt;AppModule -->
<g id="edge14" class="edge">
<title>TemaDeleteComponent&#45;&gt;AppModule</title>
<path fill="none" stroke="black" d="M555,-122.31C555,-142.15 555,-171 555,-171 555,-171 1265.22,-171 1265.22,-171"/>
<polygon fill="black" stroke="black" points="1265.22,-174.5 1275.22,-171 1265.22,-167.5 1265.22,-174.5"/>
</g>
<!-- TemaEditComponent -->
<g id="node15" class="node">
<title>TemaEditComponent</title>
<polygon fill="#ffffb3" stroke="black" points="462.04,-122 325.96,-122 325.96,-86 462.04,-86 462.04,-122"/>
<text text-anchor="middle" x="394" y="-99.8" font-family="Times,serif" font-size="14.00">TemaEditComponent</text>
</g>
<!-- TemaEditComponent&#45;&gt;AppModule -->
<g id="edge15" class="edge">
<title>TemaEditComponent&#45;&gt;AppModule</title>
<path fill="none" stroke="black" d="M394,-122.28C394,-143.32 394,-175 394,-175 394,-175 1265.25,-175 1265.25,-175"/>
<polygon fill="black" stroke="black" points="1265.25,-178.5 1275.25,-175 1265.25,-171.5 1265.25,-178.5"/>
</g>
<!-- UserEditComponent -->
<g id="node16" class="node">
<title>UserEditComponent</title>
<polygon fill="#ffffb3" stroke="black" points="307.59,-122 176.41,-122 176.41,-86 307.59,-86 307.59,-122"/>
<text text-anchor="middle" x="242" y="-99.8" font-family="Times,serif" font-size="14.00">UserEditComponent</text>
</g>
<!-- UserEditComponent&#45;&gt;AppModule -->
<g id="edge16" class="edge">
<title>UserEditComponent&#45;&gt;AppModule</title>
<path fill="none" stroke="black" d="M242,-122.16C242,-144.35 242,-179 242,-179 242,-179 1265.19,-179 1265.19,-179"/>
<polygon fill="black" stroke="black" points="1265.19,-182.5 1275.19,-179 1265.19,-175.5 1265.19,-182.5"/>
</g>
<!-- AppComponent  -->
<g id="node19" class="node">
<title>AppComponent </title>
<polygon fill="#80b1d3" stroke="black" points="1371.44,-252 1262.56,-252 1262.56,-216 1371.44,-216 1371.44,-252"/>
<text text-anchor="middle" x="1317" y="-229.8" font-family="Times,serif" font-size="14.00">AppComponent </text>
</g>
<!-- AppModule&#45;&gt;AppComponent  -->
<g id="edge18" class="edge">
<title>AppModule&#45;&gt;AppComponent </title>
<path fill="none" stroke="black" stroke-dasharray="1,5" d="M1317,-187.11C1317,-187.11 1317,-205.99 1317,-205.99"/>
<polygon fill="black" stroke="black" points="1313.5,-205.99 1317,-215.99 1320.5,-205.99 1313.5,-205.99"/>
</g>
<!-- AppRoutingModule -->
<g id="node18" class="node">
<title>AppRoutingModule</title>
<polygon fill="#8dd3c7" stroke="black" points="152.27,-122 149.27,-126 128.27,-126 125.27,-122 23.73,-122 23.73,-86 152.27,-86 152.27,-122"/>
<text text-anchor="middle" x="88" y="-99.8" font-family="Times,serif" font-size="14.00">AppRoutingModule</text>
</g>
<!-- AppRoutingModule&#45;&gt;AppModule -->
<g id="edge17" class="edge">
<title>AppRoutingModule&#45;&gt;AppModule</title>
<path fill="none" stroke="black" d="M88,-122.32C88,-145.66 88,-183 88,-183 88,-183 1265.05,-183 1265.05,-183"/>
<polygon fill="black" stroke="black" points="1265.05,-186.5 1275.05,-183 1265.05,-179.5 1265.05,-186.5"/>
</g>
</g>
</svg>
